<?xml version="1.0" encoding="UTF-8" standalone="no"?>
<svg xmlns="http://www.w3.org/2000/svg" viewBox="0 0 1440 320">
  <path fill="#ffffff" fill-opacity="0.3" d="M0,96L48,106.7C96,117,192,139,288,133.3C384,128,480,96,576,90.7C672,85,768,107,864,122.7C960,139,1056,149,1152,133.3C1248,117,1344,75,1392,53.3L1440,32L1440,0L1392,0C1344,0,1248,0,1152,0C1056,0,960,0,864,0C768,0,672,0,576,0C480,0,384,0,288,0C192,0,96,0,48,0L0,0Z"></path>
  <path fill="#ffffff" fill-opacity="0.2" d="M0,32L30,58.7C60,85,120,139,180,160C240,181,300,171,360,149.3C420,128,480,96,540,85.3C600,75,660,85,720,90.7C780,96,840,96,900,96C960,96,1020,96,1080,101.3C1140,107,1200,117,1260,106.7C1320,96,1380,64,1410,48L1440,32L1440,0L1410,0C1380,0,1320,0,1260,0C1200,0,1140,0,1080,0C1020,0,960,0,900,0C840,0,780,0,720,0C660,0,600,0,540,0C480,0,420,0,360,0C300,0,240,0,180,0C120,0,60,0,30,0L0,0Z"></path>
</svg>