<?xml version="1.0" encoding="UTF-8" standalone="no"?>
<svg xmlns="http://www.w3.org/2000/svg" viewBox="0 0 1440 320">
  <path fill="#2c2157" fill-opacity="1" d="M0,288L48,272C96,256,192,224,288,213.3C384,203,480,213,576,229.3C672,245,768,267,864,261.3C960,256,1056,224,1152,218.7C1248,213,1344,235,1392,245.3L1440,256L1440,320L1392,320C1344,320,1248,320,1152,320C1056,320,960,320,864,320C768,320,672,320,576,320C480,320,384,320,288,320C192,320,96,320,48,320L0,320Z"></path>
  <path fill="#1c1540" fill-opacity="0.8" d="M0,192L30,208C60,224,120,256,180,261.3C240,267,300,245,360,224C420,203,480,181,540,186.7C600,192,660,224,720,218.7C780,213,840,171,900,170.7C960,171,1020,213,1080,218.7C1140,224,1200,192,1260,170.7C1320,149,1380,139,1410,133.3L1440,128L1440,320L1410,320C1380,320,1320,320,1260,320C1200,320,1140,320,1080,320C1020,320,960,320,900,320C840,320,780,320,720,320C660,320,600,320,540,320C480,320,420,320,360,320C300,320,240,320,180,320C120,320,60,320,30,320L0,320Z"></path>
</svg>